<svg width="32" height="32" viewBox="0 0 32 32" fill="none" xmlns="http://www.w3.org/2000/svg">
<g filter="url(#filter0_d_231_9488)">
<g clip-path="url(#clip0_231_9488)">
<rect x="4" width="24" height="24" fill="white"/>
<path d="M24 4V16H12V4H24ZM24 2H12C10.9 2 10 2.9 10 4V16C10 17.1 10.9 18 12 18H24C25.1 18 26 17.1 26 16V4C26 2.9 25.1 2 24 2ZM16.47 14L13 10.5L14.4 9.09L16.47 11.17L21.6 6L23 7.41L16.47 14ZM8 6H6V20C6 21.1 6.9 22 8 22H22V20H8V6Z" fill="#6C757D"/>
</g>
<rect x="4.5" y="0.5" width="23" height="23" stroke="black"/>
</g>
<defs>
<filter id="filter0_d_231_9488" x="0" y="0" width="32" height="32" filterUnits="userSpaceOnUse" color-interpolation-filters="sRGB">
<feFlood flood-opacity="0" result="BackgroundImageFix"/>
<feColorMatrix in="SourceAlpha" type="matrix" values="0 0 0 0 0 0 0 0 0 0 0 0 0 0 0 0 0 0 127 0" result="hardAlpha"/>
<feOffset dy="4"/>
<feGaussianBlur stdDeviation="2"/>
<feComposite in2="hardAlpha" operator="out"/>
<feColorMatrix type="matrix" values="0 0 0 0 0 0 0 0 0 0 0 0 0 0 0 0 0 0 0.25 0"/>
<feBlend mode="normal" in2="BackgroundImageFix" result="effect1_dropShadow_231_9488"/>
<feBlend mode="normal" in="SourceGraphic" in2="effect1_dropShadow_231_9488" result="shape"/>
</filter>
<clipPath id="clip0_231_9488">
<rect x="4" width="24" height="24" fill="white"/>
</clipPath>
</defs>
</svg>
