<svg width="46" height="46" viewBox="0 0 46 46" fill="none" xmlns="http://www.w3.org/2000/svg">
<rect width="46" height="46" rx="8" fill="#ECF4FF"/>
<g clip-path="url(#clip0_651_11841)">
<path d="M27.5 14C25.76 14 24.09 14.81 23 16.09C21.91 14.81 20.24 14 18.5 14C15.42 14 13 16.42 13 19.5C13 23.28 16.4 26.36 21.55 31.04L23 32.35L24.45 31.03C29.6 26.36 33 23.28 33 19.5C33 16.42 30.58 14 27.5 14ZM23.1 29.55L23 29.65L22.9 29.55C18.14 25.24 15 22.39 15 19.5C15 17.5 16.5 16 18.5 16C20.04 16 21.54 16.99 22.07 18.36H23.94C24.46 16.99 25.96 16 27.5 16C29.5 16 31 17.5 31 19.5C31 22.39 27.86 25.24 23.1 29.55Z" fill="#0D63F3"/>
</g>
<defs>
<clipPath id="clip0_651_11841">
<rect width="24" height="24" fill="white" transform="translate(11 11)"/>
</clipPath>
</defs>
</svg>
