<svg width="46" height="46" viewBox="0 0 46 46" fill="none" xmlns="http://www.w3.org/2000/svg">
<rect width="46" height="46" rx="8" fill="#ECF4FF"/>
<g clip-path="url(#clip0_651_11842)">
<path d="M26.55 24C27.3 24 27.96 23.59 28.3 22.97L31.88 16.48C32.25 15.82 31.77 15 31.01 15H16.21L15.27 13H12V15H14L17.6 22.59L16.25 25.03C15.52 26.37 16.48 28 18 28H30V26H18L19.1 24H26.55ZM17.16 17H29.31L26.55 22H19.53L17.16 17ZM18 29C16.9 29 16.01 29.9 16.01 31C16.01 32.1 16.9 33 18 33C19.1 33 20 32.1 20 31C20 29.9 19.1 29 18 29ZM28 29C26.9 29 26.01 29.9 26.01 31C26.01 32.1 26.9 33 28 33C29.1 33 30 32.1 30 31C30 29.9 29.1 29 28 29Z" fill="#0D63F3"/>
</g>
<defs>
<clipPath id="clip0_651_11842">
<rect width="24" height="24" fill="white" transform="translate(11 11)"/>
</clipPath>
</defs>
</svg>
