<svg width="81" height="29" viewBox="0 0 81 29" fill="none" xmlns="http://www.w3.org/2000/svg">
<rect width="81" height="29" rx="4" fill="#FF0101"/>
<path d="M15.5234 8.625V20H14.0391V8.625H15.5234ZM19.1797 8.625V9.85938H10.3906V8.625H19.1797ZM19.4844 15.8672V15.6875C19.4844 15.0781 19.5729 14.513 19.75 13.9922C19.9271 13.4661 20.1823 13.0104 20.5156 12.625C20.849 12.2344 21.2526 11.9323 21.7266 11.7188C22.2005 11.5 22.7318 11.3906 23.3203 11.3906C23.9141 11.3906 24.4479 11.5 24.9219 11.7188C25.401 11.9323 25.8073 12.2344 26.1406 12.625C26.4792 13.0104 26.737 13.4661 26.9141 13.9922C27.0911 14.513 27.1797 15.0781 27.1797 15.6875V15.8672C27.1797 16.4766 27.0911 17.0417 26.9141 17.5625C26.737 18.0833 26.4792 18.5391 26.1406 18.9297C25.8073 19.3151 25.4036 19.6172 24.9297 19.8359C24.4609 20.0495 23.9297 20.1562 23.3359 20.1562C22.7422 20.1562 22.2083 20.0495 21.7344 19.8359C21.2604 19.6172 20.8542 19.3151 20.5156 18.9297C20.1823 18.5391 19.9271 18.0833 19.75 17.5625C19.5729 17.0417 19.4844 16.4766 19.4844 15.8672ZM20.9297 15.6875V15.8672C20.9297 16.2891 20.9792 16.6875 21.0781 17.0625C21.1771 17.4323 21.3255 17.7604 21.5234 18.0469C21.7266 18.3333 21.9792 18.5599 22.2812 18.7266C22.5833 18.888 22.9349 18.9688 23.3359 18.9688C23.7318 18.9688 24.0781 18.888 24.375 18.7266C24.6771 18.5599 24.9271 18.3333 25.125 18.0469C25.3229 17.7604 25.4714 17.4323 25.5703 17.0625C25.6745 16.6875 25.7266 16.2891 25.7266 15.8672V15.6875C25.7266 15.2708 25.6745 14.8776 25.5703 14.5078C25.4714 14.1328 25.3203 13.8021 25.1172 13.5156C24.9193 13.224 24.6693 12.9948 24.3672 12.8281C24.0703 12.6615 23.7214 12.5781 23.3203 12.5781C22.9245 12.5781 22.5755 12.6615 22.2734 12.8281C21.9766 12.9948 21.7266 13.224 21.5234 13.5156C21.3255 13.8021 21.1771 14.1328 21.0781 14.5078C20.9792 14.8776 20.9297 15.2708 20.9297 15.6875ZM30.4375 13.1719V23.25H28.9844V11.5469H30.3125L30.4375 13.1719ZM36.1328 15.7031V15.8672C36.1328 16.4818 36.0599 17.0521 35.9141 17.5781C35.7682 18.099 35.5547 18.5521 35.2734 18.9375C34.9974 19.3229 34.6562 19.6224 34.25 19.8359C33.8438 20.0495 33.3776 20.1562 32.8516 20.1562C32.3151 20.1562 31.8411 20.0677 31.4297 19.8906C31.0182 19.7135 30.6693 19.4557 30.3828 19.1172C30.0964 18.7786 29.8672 18.3724 29.6953 17.8984C29.5286 17.4245 29.4141 16.8906 29.3516 16.2969V15.4219C29.4141 14.7969 29.5312 14.237 29.7031 13.7422C29.875 13.2474 30.1016 12.8255 30.3828 12.4766C30.6693 12.1224 31.0156 11.8542 31.4219 11.6719C31.8281 11.4844 32.2969 11.3906 32.8281 11.3906C33.3594 11.3906 33.8307 11.4948 34.2422 11.7031C34.6536 11.9062 35 12.1979 35.2812 12.5781C35.5625 12.9583 35.7734 13.4141 35.9141 13.9453C36.0599 14.4714 36.1328 15.0573 36.1328 15.7031ZM34.6797 15.8672V15.7031C34.6797 15.2812 34.6354 14.8854 34.5469 14.5156C34.4583 14.1406 34.3203 13.8125 34.1328 13.5312C33.9505 13.2448 33.7161 13.0208 33.4297 12.8594C33.1432 12.6927 32.8021 12.6094 32.4062 12.6094C32.0417 12.6094 31.724 12.6719 31.4531 12.7969C31.1875 12.9219 30.9609 13.0911 30.7734 13.3047C30.5859 13.513 30.4323 13.7526 30.3125 14.0234C30.1979 14.2891 30.112 14.5651 30.0547 14.8516V16.875C30.1589 17.2396 30.3047 17.5833 30.4922 17.9062C30.6797 18.224 30.9297 18.4818 31.2422 18.6797C31.5547 18.8724 31.9479 18.9688 32.4219 18.9688C32.8125 18.9688 33.1484 18.888 33.4297 18.7266C33.7161 18.5599 33.9505 18.3333 34.1328 18.0469C34.3203 17.7604 34.4583 17.4323 34.5469 17.0625C34.6354 16.6875 34.6797 16.2891 34.6797 15.8672ZM46.8672 17.7578C46.8672 17.5495 46.8203 17.3568 46.7266 17.1797C46.638 16.9974 46.4531 16.8333 46.1719 16.6875C45.8958 16.5365 45.4792 16.4062 44.9219 16.2969C44.4531 16.1979 44.0286 16.0807 43.6484 15.9453C43.2734 15.8099 42.9531 15.6458 42.6875 15.4531C42.4271 15.2604 42.2266 15.0339 42.0859 14.7734C41.9453 14.513 41.875 14.2083 41.875 13.8594C41.875 13.526 41.9479 13.2109 42.0938 12.9141C42.2448 12.6172 42.4557 12.3542 42.7266 12.125C43.0026 11.8958 43.3333 11.7161 43.7188 11.5859C44.1042 11.4557 44.5339 11.3906 45.0078 11.3906C45.6849 11.3906 46.263 11.5104 46.7422 11.75C47.2214 11.9896 47.5885 12.3099 47.8438 12.7109C48.099 13.1068 48.2266 13.5469 48.2266 14.0312H46.7812C46.7812 13.7969 46.7109 13.5703 46.5703 13.3516C46.4349 13.1276 46.2344 12.9427 45.9688 12.7969C45.7083 12.651 45.388 12.5781 45.0078 12.5781C44.6068 12.5781 44.2812 12.6406 44.0312 12.7656C43.7865 12.8854 43.6068 13.0391 43.4922 13.2266C43.3828 13.4141 43.3281 13.612 43.3281 13.8203C43.3281 13.9766 43.3542 14.1172 43.4062 14.2422C43.4635 14.362 43.5625 14.474 43.7031 14.5781C43.8438 14.6771 44.0417 14.7708 44.2969 14.8594C44.5521 14.9479 44.8776 15.0365 45.2734 15.125C45.9661 15.2812 46.5365 15.4688 46.9844 15.6875C47.4323 15.9062 47.7656 16.1745 47.9844 16.4922C48.2031 16.8099 48.3125 17.1953 48.3125 17.6484C48.3125 18.0182 48.2344 18.3568 48.0781 18.6641C47.9271 18.9714 47.7057 19.237 47.4141 19.4609C47.1276 19.6797 46.7839 19.8516 46.3828 19.9766C45.987 20.0964 45.5417 20.1562 45.0469 20.1562C44.3021 20.1562 43.6719 20.0234 43.1562 19.7578C42.6406 19.4922 42.25 19.1484 41.9844 18.7266C41.7188 18.3047 41.5859 17.8594 41.5859 17.3906H43.0391C43.0599 17.7865 43.1745 18.1016 43.3828 18.3359C43.5911 18.5651 43.8464 18.7292 44.1484 18.8281C44.4505 18.9219 44.75 18.9688 45.0469 18.9688C45.4427 18.9688 45.7734 18.9167 46.0391 18.8125C46.3099 18.7083 46.5156 18.5651 46.6562 18.3828C46.7969 18.2005 46.8672 17.9922 46.8672 17.7578ZM55.1953 18.5547V14.2031C55.1953 13.8698 55.1276 13.5807 54.9922 13.3359C54.862 13.0859 54.6641 12.8932 54.3984 12.7578C54.1328 12.6224 53.8047 12.5547 53.4141 12.5547C53.0495 12.5547 52.7292 12.6172 52.4531 12.7422C52.1823 12.8672 51.9688 13.0312 51.8125 13.2344C51.6615 13.4375 51.5859 13.6562 51.5859 13.8906H50.1406C50.1406 13.5885 50.2188 13.2891 50.375 12.9922C50.5312 12.6953 50.7552 12.4271 51.0469 12.1875C51.3438 11.9427 51.6979 11.75 52.1094 11.6094C52.526 11.4635 52.9896 11.3906 53.5 11.3906C54.1146 11.3906 54.6562 11.4948 55.125 11.7031C55.599 11.9115 55.9688 12.2266 56.2344 12.6484C56.5052 13.0651 56.6406 13.5885 56.6406 14.2188V18.1562C56.6406 18.4375 56.6641 18.737 56.7109 19.0547C56.763 19.3724 56.8385 19.6458 56.9375 19.875V20H55.4297C55.3568 19.8333 55.2995 19.612 55.2578 19.3359C55.2161 19.0547 55.1953 18.7943 55.1953 18.5547ZM55.4453 14.875L55.4609 15.8906H54C53.5885 15.8906 53.2214 15.9245 52.8984 15.9922C52.5755 16.0547 52.3047 16.151 52.0859 16.2812C51.8672 16.4115 51.7005 16.5755 51.5859 16.7734C51.4714 16.9661 51.4141 17.1927 51.4141 17.4531C51.4141 17.7188 51.474 17.9609 51.5938 18.1797C51.7135 18.3984 51.8932 18.5729 52.1328 18.7031C52.3776 18.8281 52.6771 18.8906 53.0312 18.8906C53.474 18.8906 53.8646 18.7969 54.2031 18.6094C54.5417 18.4219 54.8099 18.1927 55.0078 17.9219C55.2109 17.651 55.3203 17.388 55.3359 17.1328L55.9531 17.8281C55.9167 18.0469 55.8177 18.2891 55.6562 18.5547C55.4948 18.8203 55.2786 19.0755 55.0078 19.3203C54.7422 19.5599 54.4245 19.7604 54.0547 19.9219C53.6901 20.0781 53.2786 20.1562 52.8203 20.1562C52.2474 20.1562 51.7448 20.0443 51.3125 19.8203C50.8854 19.5964 50.5521 19.2969 50.3125 18.9219C50.0781 18.5417 49.9609 18.1172 49.9609 17.6484C49.9609 17.1953 50.0495 16.7969 50.2266 16.4531C50.4036 16.1042 50.6589 15.8151 50.9922 15.5859C51.3255 15.3516 51.7266 15.1745 52.1953 15.0547C52.6641 14.9349 53.1875 14.875 53.7656 14.875H55.4453ZM60.4844 8V20H59.0312V8H60.4844ZM66.3125 20.1562C65.724 20.1562 65.1901 20.0573 64.7109 19.8594C64.237 19.6562 63.8281 19.3724 63.4844 19.0078C63.1458 18.6432 62.8854 18.2109 62.7031 17.7109C62.5208 17.2109 62.4297 16.6641 62.4297 16.0703V15.7422C62.4297 15.0547 62.5312 14.4427 62.7344 13.9062C62.9375 13.3646 63.2135 12.9062 63.5625 12.5312C63.9115 12.1562 64.3073 11.8724 64.75 11.6797C65.1927 11.487 65.651 11.3906 66.125 11.3906C66.7292 11.3906 67.25 11.4948 67.6875 11.7031C68.1302 11.9115 68.4922 12.2031 68.7734 12.5781C69.0547 12.9479 69.263 13.3854 69.3984 13.8906C69.5339 14.3906 69.6016 14.9375 69.6016 15.5312V16.1797H63.2891V15H68.1562V14.8906C68.1354 14.5156 68.0573 14.151 67.9219 13.7969C67.7917 13.4427 67.5833 13.151 67.2969 12.9219C67.0104 12.6927 66.6198 12.5781 66.125 12.5781C65.7969 12.5781 65.4948 12.6484 65.2188 12.7891C64.9427 12.9245 64.7057 13.1276 64.5078 13.3984C64.3099 13.6693 64.1562 14 64.0469 14.3906C63.9375 14.7812 63.8828 15.2318 63.8828 15.7422V16.0703C63.8828 16.4714 63.9375 16.849 64.0469 17.2031C64.1615 17.5521 64.3255 17.8594 64.5391 18.125C64.7578 18.3906 65.0208 18.599 65.3281 18.75C65.6406 18.901 65.9948 18.9766 66.3906 18.9766C66.901 18.9766 67.3333 18.8724 67.6875 18.6641C68.0417 18.4557 68.3516 18.1771 68.6172 17.8281L69.4922 18.5234C69.3099 18.7995 69.0781 19.0625 68.7969 19.3125C68.5156 19.5625 68.1693 19.7656 67.7578 19.9219C67.3516 20.0781 66.8698 20.1562 66.3125 20.1562Z" fill="white"/>
</svg>
