<svg width="76" height="29" viewBox="0 0 76 29" fill="none" xmlns="http://www.w3.org/2000/svg">
<rect width="76" height="29" rx="4" fill="#EB8528"/>
<path d="M11.8438 8.625L14.7969 14.3359L17.7578 8.625H19.4688L15.5469 15.75V20H14.0391V15.75L10.1172 8.625H11.8438ZM25.1172 18.5547V14.2031C25.1172 13.8698 25.0495 13.5807 24.9141 13.3359C24.7839 13.0859 24.5859 12.8932 24.3203 12.7578C24.0547 12.6224 23.7266 12.5547 23.3359 12.5547C22.9714 12.5547 22.651 12.6172 22.375 12.7422C22.1042 12.8672 21.8906 13.0312 21.7344 13.2344C21.5833 13.4375 21.5078 13.6562 21.5078 13.8906H20.0625C20.0625 13.5885 20.1406 13.2891 20.2969 12.9922C20.4531 12.6953 20.6771 12.4271 20.9688 12.1875C21.2656 11.9427 21.6198 11.75 22.0312 11.6094C22.4479 11.4635 22.9115 11.3906 23.4219 11.3906C24.0365 11.3906 24.5781 11.4948 25.0469 11.7031C25.5208 11.9115 25.8906 12.2266 26.1562 12.6484C26.4271 13.0651 26.5625 13.5885 26.5625 14.2188V18.1562C26.5625 18.4375 26.5859 18.737 26.6328 19.0547C26.6849 19.3724 26.7604 19.6458 26.8594 19.875V20H25.3516C25.2786 19.8333 25.2214 19.612 25.1797 19.3359C25.138 19.0547 25.1172 18.7943 25.1172 18.5547ZM25.3672 14.875L25.3828 15.8906H23.9219C23.5104 15.8906 23.1432 15.9245 22.8203 15.9922C22.4974 16.0547 22.2266 16.151 22.0078 16.2812C21.7891 16.4115 21.6224 16.5755 21.5078 16.7734C21.3932 16.9661 21.3359 17.1927 21.3359 17.4531C21.3359 17.7188 21.3958 17.9609 21.5156 18.1797C21.6354 18.3984 21.8151 18.5729 22.0547 18.7031C22.2995 18.8281 22.599 18.8906 22.9531 18.8906C23.3958 18.8906 23.7865 18.7969 24.125 18.6094C24.4635 18.4219 24.7318 18.1927 24.9297 17.9219C25.1328 17.651 25.2422 17.388 25.2578 17.1328L25.875 17.8281C25.8385 18.0469 25.7396 18.2891 25.5781 18.5547C25.4167 18.8203 25.2005 19.0755 24.9297 19.3203C24.6641 19.5599 24.3464 19.7604 23.9766 19.9219C23.612 20.0781 23.2005 20.1562 22.7422 20.1562C22.1693 20.1562 21.6667 20.0443 21.2344 19.8203C20.8073 19.5964 20.474 19.2969 20.2344 18.9219C20 18.5417 19.8828 18.1172 19.8828 17.6484C19.8828 17.1953 19.9714 16.7969 20.1484 16.4531C20.3255 16.1042 20.5807 15.8151 20.9141 15.5859C21.2474 15.3516 21.6484 15.1745 22.1172 15.0547C22.5859 14.9349 23.1094 14.875 23.6875 14.875H25.3672ZM30.2812 13.3516V20H28.8359V11.5469H30.2031L30.2812 13.3516ZM29.9375 15.4531L29.3359 15.4297C29.3411 14.8516 29.4271 14.3177 29.5938 13.8281C29.7604 13.3333 29.9948 12.9036 30.2969 12.5391C30.599 12.1745 30.9583 11.8932 31.375 11.6953C31.7969 11.4922 32.263 11.3906 32.7734 11.3906C33.1901 11.3906 33.5651 11.4479 33.8984 11.5625C34.2318 11.6719 34.5156 11.849 34.75 12.0938C34.9896 12.3385 35.1719 12.6562 35.2969 13.0469C35.4219 13.4323 35.4844 13.9036 35.4844 14.4609V20H34.0312V14.4453C34.0312 14.0026 33.9661 13.6484 33.8359 13.3828C33.7057 13.112 33.5156 12.9167 33.2656 12.7969C33.0156 12.6719 32.7083 12.6094 32.3438 12.6094C31.9844 12.6094 31.6562 12.6849 31.3594 12.8359C31.0677 12.987 30.8151 13.1953 30.6016 13.4609C30.3932 13.7266 30.2292 14.0312 30.1094 14.375C29.9948 14.7135 29.9375 15.0729 29.9375 15.4531ZM43.1562 11.5469H44.4688V19.8203C44.4688 20.5651 44.3177 21.2005 44.0156 21.7266C43.7135 22.2526 43.2917 22.651 42.75 22.9219C42.2135 23.1979 41.5938 23.3359 40.8906 23.3359C40.599 23.3359 40.2552 23.2891 39.8594 23.1953C39.4688 23.1068 39.0833 22.9531 38.7031 22.7344C38.3281 22.5208 38.013 22.2318 37.7578 21.8672L38.5156 21.0078C38.8698 21.4349 39.2396 21.7318 39.625 21.8984C40.0156 22.0651 40.401 22.1484 40.7812 22.1484C41.2396 22.1484 41.6354 22.0625 41.9688 21.8906C42.3021 21.7188 42.5599 21.4635 42.7422 21.125C42.9297 20.7917 43.0234 20.3802 43.0234 19.8906V13.4062L43.1562 11.5469ZM37.3359 15.8672V15.7031C37.3359 15.0573 37.4115 14.4714 37.5625 13.9453C37.7188 13.4141 37.9401 12.9583 38.2266 12.5781C38.5182 12.1979 38.8698 11.9062 39.2812 11.7031C39.6927 11.4948 40.1562 11.3906 40.6719 11.3906C41.2031 11.3906 41.6667 11.4844 42.0625 11.6719C42.4635 11.8542 42.8021 12.1224 43.0781 12.4766C43.3594 12.8255 43.5807 13.2474 43.7422 13.7422C43.9036 14.237 44.0156 14.7969 44.0781 15.4219V16.1406C44.0208 16.7604 43.9089 17.3177 43.7422 17.8125C43.5807 18.3073 43.3594 18.7292 43.0781 19.0781C42.8021 19.4271 42.4635 19.6953 42.0625 19.8828C41.6615 20.0651 41.1927 20.1562 40.6562 20.1562C40.151 20.1562 39.6927 20.0495 39.2812 19.8359C38.875 19.6224 38.526 19.3229 38.2344 18.9375C37.9427 18.5521 37.7188 18.099 37.5625 17.5781C37.4115 17.0521 37.3359 16.4818 37.3359 15.8672ZM38.7812 15.7031V15.8672C38.7812 16.2891 38.8229 16.6849 38.9062 17.0547C38.9948 17.4245 39.1276 17.75 39.3047 18.0312C39.487 18.3125 39.7188 18.5339 40 18.6953C40.2812 18.8516 40.6172 18.9297 41.0078 18.9297C41.487 18.9297 41.8828 18.8281 42.1953 18.625C42.5078 18.4219 42.7552 18.1536 42.9375 17.8203C43.125 17.487 43.2708 17.125 43.375 16.7344V14.8516C43.3177 14.5651 43.2292 14.2891 43.1094 14.0234C42.9948 13.7526 42.8438 13.513 42.6562 13.3047C42.474 13.0911 42.2474 12.9219 41.9766 12.7969C41.7057 12.6719 41.388 12.6094 41.0234 12.6094C40.6276 12.6094 40.2865 12.6927 40 12.8594C39.7188 13.0208 39.487 13.2448 39.3047 13.5312C39.1276 13.8125 38.9948 14.1406 38.9062 14.5156C38.8229 14.8854 38.7812 15.2812 38.7812 15.7031ZM48.2344 11.5469V20H46.7812V11.5469H48.2344ZM46.6719 9.30469C46.6719 9.07031 46.7422 8.8724 46.8828 8.71094C47.0286 8.54948 47.2422 8.46875 47.5234 8.46875C47.7995 8.46875 48.0104 8.54948 48.1562 8.71094C48.3073 8.8724 48.3828 9.07031 48.3828 9.30469C48.3828 9.52865 48.3073 9.72135 48.1562 9.88281C48.0104 10.0391 47.7995 10.1172 47.5234 10.1172C47.2422 10.1172 47.0286 10.0391 46.8828 9.88281C46.7422 9.72135 46.6719 9.52865 46.6719 9.30469ZM52.125 8V20H50.6719V8H52.125ZM56.0156 11.5469V20H54.5625V11.5469H56.0156ZM54.4531 9.30469C54.4531 9.07031 54.5234 8.8724 54.6641 8.71094C54.8099 8.54948 55.0234 8.46875 55.3047 8.46875C55.5807 8.46875 55.7917 8.54948 55.9375 8.71094C56.0885 8.8724 56.1641 9.07031 56.1641 9.30469C56.1641 9.52865 56.0885 9.72135 55.9375 9.88281C55.7917 10.0391 55.5807 10.1172 55.3047 10.1172C55.0234 10.1172 54.8099 10.0391 54.6641 9.88281C54.5234 9.72135 54.4531 9.52865 54.4531 9.30469ZM59.7891 8V20H58.3359V8H59.7891ZM64.9531 11.5469L61.2656 15.4922L59.2031 17.6328L59.0859 16.0938L60.5625 14.3281L63.1875 11.5469H64.9531ZM63.6328 20L60.6172 15.9688L61.3672 14.6797L65.3359 20H63.6328Z" fill="white"/>
</svg>
